<?xml version="1.0" encoding="UTF-8"?>
<svg version="1.1" xmlns="http://www.w3.org/2000/svg" width="486" height="360">
<path d="M0 0 C0.68506662 -0.00265183 1.37013323 -0.00530365 2.07595944 -0.00803584 C4.37642929 -0.01570831 6.67684557 -0.01628723 8.97732735 -0.01688576 C10.64149742 -0.02090175 12.30566652 -0.0253402 13.96983445 -0.03016531 C18.54721519 -0.04212168 23.12458539 -0.04777711 27.70197868 -0.05234647 C32.63747281 -0.05830619 37.57295437 -0.0699152 42.50844002 -0.08063698 C54.43088914 -0.10515376 66.35334242 -0.11978774 78.27580899 -0.13269705 C81.64416082 -0.13640972 85.01251224 -0.14038289 88.38086367 -0.14444971 C109.30438101 -0.16968863 130.22789902 -0.19173861 151.15142822 -0.20417786 C155.99745753 -0.20710749 160.84348681 -0.21006916 165.68951607 -0.21308327 C166.89395289 -0.21382932 168.0983897 -0.21457537 169.33932461 -0.21534403 C188.84166148 -0.22799217 208.34390707 -0.26120831 227.84620129 -0.3028851 C247.87590242 -0.34533747 267.90555686 -0.36887677 287.93530285 -0.37409842 C299.17831493 -0.37750894 310.4211844 -0.38922175 321.66415215 -0.42220116 C331.24129149 -0.45024826 340.81825899 -0.46118055 350.39543621 -0.4500057 C355.27835913 -0.44483088 360.16092242 -0.44762915 365.04379272 -0.47247124 C369.52260304 -0.49506647 374.00079754 -0.49414473 378.4796194 -0.47526737 C380.09144397 -0.47248167 381.70331122 -0.47798543 383.31506751 -0.4930803 C397.76650345 -0.62004204 411.30208093 1.62282369 422.10162544 12.13701439 C422.73584419 12.74416283 423.37006294 13.35131126 424.02350044 13.97685814 C436.46662963 26.97833286 436.40471059 43.90060824 436.36041451 60.82890892 C436.36313 62.58470364 436.36669405 64.34049722 436.37103462 66.09628868 C436.38009849 70.83426764 436.37663821 75.57215882 436.37027645 80.31013918 C436.3651804 85.29449656 436.3699183 90.27884687 436.37304878 95.26320457 C436.37668 103.63717038 436.37191364 112.01110083 436.36236763 120.38506126 C436.35150608 130.0234382 436.35499534 139.66173036 436.36602044 149.30010521 C436.37514302 157.61224432 436.37635381 165.92435812 436.3711431 174.23650062 C436.36804782 179.18441266 436.36754558 184.13228508 436.37421608 189.08019447 C436.3800609 193.7408144 436.37586444 198.40132691 436.36442757 203.06193542 C436.36181773 204.75724358 436.36248171 206.45256103 436.3669529 208.1478653 C436.40343776 223.40736871 435.65313351 238.65466585 431.35162544 253.38701439 C430.95801826 254.77412621 430.95801826 254.77412621 430.55645943 256.18926048 C421.32312792 287.78262935 399.80460215 315.78721753 371.10162544 332.13701439 C359.37966187 338.44509754 347.68348148 343.81856062 334.66412544 346.82451439 C333.79980904 347.03656517 332.93549263 347.24861595 332.04498482 347.46709251 C322.42484477 349.73444151 312.82915343 350.2882586 302.97171211 350.27072716 C302.01467325 350.27299271 301.05763439 350.27525827 300.07159436 350.27759248 C296.89783557 350.28387013 293.72412018 350.28310716 290.55035591 350.28227806 C288.26107415 350.28527348 285.97179289 350.28867689 283.68251228 350.29245567 C277.48593614 350.30126165 271.28937383 350.30363237 265.09279203 350.30427146 C261.21424626 350.30498398 257.33570395 350.30712214 253.45715904 350.30976868 C240.60394292 350.31853513 227.7507379 350.32318978 214.89751922 350.3224382 C214.20626099 350.32239825 213.51500276 350.32235829 212.80279732 350.32231712 C212.11068264 350.32227624 211.41856796 350.32223536 210.70548011 350.32219324 C199.50145944 350.32178722 188.29747244 350.33134842 177.0934615 350.34545549 C165.55447085 350.35986821 154.01550093 350.36654043 142.47650063 350.36586171 C136.01227186 350.36560773 129.54808122 350.36840378 123.0838604 350.37903976 C116.99840582 350.38877977 110.91302537 350.38875975 104.82756805 350.38152313 C102.60614411 350.38048454 100.38471541 350.38279654 98.16329956 350.38888359 C82.21195351 350.42972873 66.27538444 350.2214626 50.85162544 345.63701439 C49.55309639 345.25561302 49.55309639 345.25561302 48.22833443 344.86650658 C27.76873382 338.53039232 10.51347425 327.89136112 -4.89837456 313.13701439 C-5.63314018 312.46541283 -6.36790581 311.79381126 -7.12493706 311.10185814 C-28.17230042 291.20726556 -40.23120576 263.54077008 -43.89837456 235.13701439 C-44.02954642 234.17029021 -44.02954642 234.17029021 -44.16336823 233.18403625 C-45.18232505 224.5420934 -45.06983969 215.86900157 -45.09124565 207.18144798 C-45.09916041 205.37344269 -45.10743017 203.56543893 -45.11602592 201.75743675 C-45.14208058 195.85012346 -45.15753387 189.94280366 -45.17181206 184.03545189 C-45.17717797 181.99210291 -45.18255549 179.94875396 -45.18794441 177.90540504 C-45.20954608 169.40045279 -45.22827976 160.89550231 -45.2395668 152.39052963 C-45.25579237 140.24977894 -45.28896787 128.10934881 -45.34596765 115.96871889 C-45.3847914 107.40443157 -45.40421398 98.84022956 -45.40948737 90.27585661 C-45.41312288 85.17358607 -45.42495209 80.07165873 -45.4575901 74.96948433 C-45.48789179 70.16432301 -45.49390465 65.35970873 -45.48220634 60.55447197 C-45.48198747 58.80347581 -45.49013595 57.05245256 -45.50786018 55.3015461 C-45.64004506 41.4772275 -44.4433456 26.92102476 -34.83196831 16.09013939 C-34.19388237 15.44560814 -33.55579643 14.80107689 -32.89837456 14.13701439 C-32.22935112 13.43060814 -31.56032768 12.72420189 -30.87103081 11.99638939 C-22.28456961 3.6117799 -11.85007963 0.02263305 0 0 Z " fill="#010101" transform="translate(48.89837455749512,5.862985610961914)"/>
<path d="M0 0 C4.51334374 3.89584646 7.51678511 9.27328793 8.28515625 15.19921875 C8.65806486 24.74892181 4.16215927 30.29208694 -2 37 C-4.66631542 39.78123449 -7.38683924 42.50443991 -10.12109375 45.21875 C-10.86585464 45.96209595 -11.61061554 46.70544189 -12.37794495 47.47131348 C-14.72876745 49.81659301 -17.08306431 52.15834836 -19.4375 54.5 C-21.04385199 56.10132961 -22.64997397 57.70288998 -24.25585938 59.3046875 C-28.16791985 63.20579473 -32.08282952 67.1040242 -36 71 C-34.57970001 74.24000143 -32.86844377 76.362625 -30.34814453 78.83129883 C-29.60041779 79.56919144 -28.85269104 80.30708405 -28.08230591 81.06733704 C-27.27397308 81.85593613 -26.46564026 82.64453522 -25.6328125 83.45703125 C-23.92565967 85.14375716 -22.21863235 86.83061011 -20.51171875 88.51757812 C-17.81943366 91.16642343 -15.12473836 93.81275641 -12.42724609 96.45629883 C-9.8225891 99.01252705 -7.22732464 101.5780127 -4.6328125 104.14453125 C-3.82852814 104.92705765 -3.02424377 105.70958405 -2.19558716 106.51582336 C2.72970489 111.39746909 7.29087732 115.95904356 8.53125 123.02734375 C8.44199037 131.33964665 6.88017482 136.29691809 1.8125 142.8125 C-4.10046436 147.41147228 -10.64615718 148.70036598 -18 148 C-24.08000732 146.43700369 -28.03017211 143.69707717 -32.3684082 139.26269531 C-32.94997177 138.68828705 -33.53153534 138.11387878 -34.13072205 137.52206421 C-36.03332315 135.63625326 -37.91730461 133.73302211 -39.80078125 131.828125 C-41.12657238 130.50316339 -42.45317998 129.17901831 -43.78056335 127.85565186 C-46.55292446 125.08614209 -49.31634125 122.30809362 -52.07348633 119.5234375 C-55.59995258 115.96287403 -59.14612796 112.42274381 -62.69901752 108.88856888 C-65.43888704 106.15929021 -68.16888877 103.42031093 -70.89595604 100.67824554 C-72.1996533 99.36938251 -73.50616532 98.06331665 -74.81557655 96.76016998 C-76.64655094 94.93467337 -78.46403349 93.09670631 -80.27856445 91.25488281 C-80.81625458 90.72371857 -81.3539447 90.19255432 -81.90792847 89.64529419 C-86.86505831 84.56135439 -89.42774901 79.32698871 -89.4375 72.0625 C-89.45683594 71.10472656 -89.47617188 70.14695312 -89.49609375 69.16015625 C-88.37129282 61.99508579 -84.36766665 56.77234144 -79.30102539 51.81518555 C-78.74276566 51.25312912 -78.18450592 50.69107269 -77.60932922 50.11198425 C-75.78169707 48.27700868 -73.94018526 46.4567256 -72.09765625 44.63671875 C-70.81424653 43.35569663 -69.53157899 42.07393057 -68.24961853 40.79145813 C-65.57009642 38.1150531 -62.88402511 35.44546702 -60.19262695 32.78100586 C-56.7481066 29.37053214 -53.31696732 25.94697212 -49.89019108 22.51867962 C-47.24590427 19.87493723 -44.59643288 17.23644345 -41.94518852 14.59967995 C-40.67816915 13.33900954 -39.41234391 12.07713777 -38.14775276 10.8140316 C-36.37958662 9.05021471 -34.60498234 7.2931449 -32.82836914 5.5378418 C-32.31028687 5.01885315 -31.79220459 4.4998645 -31.25842285 3.96514893 C-22.11045806 -5.02327859 -11.12156321 -6.98884225 0 0 Z " fill="#FEFEFE" transform="translate(160,109)"/>
<path d="M0 0 C3.99393047 3.03538716 7.50204426 6.41235309 11 10 C11.7425 10.7425 12.485 11.485 13.25 12.25 C14.1575 13.1575 15.065 14.065 16 15 C16.76441406 15.74121094 17.52882813 16.48242188 18.31640625 17.24609375 C19.14011719 18.05175781 19.96382813 18.85742188 20.8125 19.6875 C21.60269531 20.45449219 22.39289063 21.22148437 23.20703125 22.01171875 C25 24 25 24 25 26 C25.556875 26.226875 26.11375 26.45375 26.6875 26.6875 C30.4879961 28.84453833 33.1786655 31.92376859 35.8125 35.375 C38.32503708 38.3900445 41.11078219 40.81759257 44.09765625 43.3515625 C45.82258661 44.84626602 47.48534931 46.29188926 49 48 C49 48.66 49 49.32 49 50 C49.639375 50.268125 50.27875 50.53625 50.9375 50.8125 C53 52 53 52 54 55 C55.32770805 55.67780054 56.66181857 56.34311897 58 57 C62.5707271 61.58121042 64.43014406 66.11726507 64.625 72.5625 C64.5678344 80.19410762 61.21533052 86.20692707 55.96278381 91.56822205 C55.45517014 92.06616776 54.94755646 92.56411346 54.42456055 93.07714844 C53.87926697 93.627845 53.33397339 94.17854156 52.77215576 94.7459259 C50.9867303 96.54374656 49.18734769 98.32679206 47.38671875 100.109375 C46.13059343 101.36565551 44.87513655 102.62260468 43.62031555 103.88018799 C40.99641662 106.50546677 38.36572221 109.12367547 35.72973633 111.73681641 C32.36214101 115.07601424 29.0103521 118.43056318 25.66330242 121.79034042 C23.07546629 124.38515202 20.4802801 126.97250949 17.882761 129.55762482 C16.64442314 130.79146739 15.40814083 132.02737676 14.17401695 133.26543427 C12.44446887 134.99791325 10.70545462 136.72031207 8.96362305 138.44042969 C8.46208206 138.94647232 7.96054108 139.45251495 7.44380188 139.97389221 C1.78620846 145.51557598 -3.81098628 148.64499884 -11.6875 149.3125 C-17.45986916 149.20500709 -22.49513527 147.2057764 -26.83203125 143.38671875 C-32.24615725 137.44567051 -33.19995884 131.82025499 -33.55859375 123.9765625 C-31.97195645 115.52189378 -24.86520968 109.46209747 -18.98046875 103.6875 C-17.69261223 102.40601074 -17.69261223 102.40601074 -16.3787384 101.09863281 C-13.655332 98.39191712 -10.9216435 95.69586501 -8.1875 93 C-6.33068926 91.15824842 -4.47456205 89.31580745 -2.61914062 87.47265625 C1.912694 82.97376342 6.45299977 78.48356175 11 74 C9.56400605 70.70801459 7.79792417 68.56769699 5.24047852 66.06103516 C4.46950333 65.2998941 3.69852814 64.53875305 2.90419006 63.75454712 C2.07084641 62.94093719 1.23750275 62.12732727 0.37890625 61.2890625 C-1.37837488 59.55220441 -3.13553252 57.81522136 -4.89257812 56.078125 C-7.6661844 53.34800604 -10.44219849 50.62039259 -13.22094727 47.89550781 C-15.90245954 45.26232609 -18.57466212 42.61996504 -21.24609375 39.9765625 C-22.07741318 39.16700104 -22.9087326 38.35743958 -23.76524353 37.52334595 C-32.42917791 28.93419539 -32.42917791 28.93419539 -33.3984375 22.25390625 C-33.32106799 13.36930727 -31.13883942 7.43116511 -25 1 C-17.2598171 -4.47476352 -8.24425312 -4.51100643 0 0 Z " fill="#FDFDFD" transform="translate(354,108)"/>
<path d="M0 0 C5.68879934 3.26729412 9.30429976 7.7917277 11.5078125 13.9140625 C12.70201839 20.28316059 11.51352762 25.2713547 9.29296875 31.1640625 C8.88473877 32.28204224 8.88473877 32.28204224 8.46826172 33.42260742 C6.35244319 39.13775644 3.99841639 44.73554183 1.55078125 50.31640625 C-3.57490366 62.07626451 -8.15262776 74.08893182 -12.5625 86.1328125 C-14.16923381 90.41894147 -15.95372183 94.62895247 -17.72387695 98.84960938 C-20.04926913 104.41750867 -22.31150861 110.01111599 -24.58203125 115.6015625 C-25.9619729 118.99923395 -27.3431813 122.3962692 -28.73388672 125.78955078 C-29.63819398 128.01117924 -30.52770108 130.23888554 -31.40283203 132.47216797 C-32.03680908 134.06375732 -32.03680908 134.06375732 -32.68359375 135.6875 C-33.05307129 136.63157715 -33.42254883 137.5756543 -33.80322266 138.54833984 C-36.58024734 144.09284617 -40.9565545 147.22859884 -46.58203125 149.5390625 C-54.55919919 150.82110735 -60.12733199 150.37012552 -67.08203125 146.1015625 C-71.68756628 141.79638845 -73.87318886 137.19363186 -75.08203125 131.1015625 C-75.29899257 122.89167328 -72.36351616 115.7176596 -69.33203125 108.2265625 C-68.90148437 107.13214844 -68.4709375 106.03773438 -68.02734375 104.91015625 C-65.506234 98.53189955 -62.87811402 92.20061908 -60.22949219 85.87451172 C-58.61564209 81.97448844 -57.09207718 78.04267527 -55.58203125 74.1015625 C-53.27546312 68.12341615 -50.88709407 62.19250075 -48.39453125 56.2890625 C-46.73097422 52.24899542 -45.15587849 48.17725079 -43.58203125 44.1015625 C-41.24998666 38.06447037 -38.86504534 32.06090001 -36.3203125 26.109375 C-35.38708229 23.84253821 -34.51980685 21.58478329 -33.6875 19.28125 C-30.38803877 10.28201902 -27.24476185 4.06535229 -18.70703125 -0.8359375 C-12.24333435 -2.73046935 -6.2457758 -2.66785633 0 0 Z " fill="#FDFDFD" transform="translate(276.08203125,106.8984375)"/>
<path d="" fill="#DEDEDE" transform="translate(0,0)"/>
</svg>
